<?xml version="1.0" standalone="no"?>
<!DOCTYPE svg PUBLIC "-//W3C//DTD SVG 20010904//EN"
 "http://www.w3.org/TR/2001/REC-SVG-20010904/DTD/svg10.dtd">
<svg version="1.0" xmlns="http://www.w3.org/2000/svg"
 width="128.000000pt" height="128.000000pt" viewBox="0 0 128.000000 128.000000"
 preserveAspectRatio="xMidYMid meet">
<metadata>
Created by potrace 1.14, written by Peter Selinger 2001-2017
</metadata>
<g transform="translate(0.000000,128.000000) scale(0.100000,-0.100000)"
fill="#000000" stroke="none">
<path d="M243 1243 c-17 -10 -46 -36 -64 -58 -38 -47 -92 -162 -85 -180 2 -7
-5 -28 -16 -46 -44 -72 -84 -277 -74 -377 14 -132 104 -247 218 -279 l57 -16
0 -111 c0 -166 -1 -158 18 -154 16 3 18 18 18 133 l0 129 41 12 c112 32 189
113 228 236 5 16 7 16 36 2 31 -16 97 -16 133 0 16 8 17 -8 17 -253 0 -254 1
-261 20 -261 19 0 20 7 20 261 0 245 1 261 18 254 9 -3 29 -9 45 -12 20 -4 27
-11 27 -30 0 -86 52 -170 128 -206 l45 -22 -1 -122 c0 -114 1 -123 18 -123 18
0 20 10 22 127 l3 126 31 11 c134 47 177 236 78 345 -19 21 -49 44 -67 52 -17
7 -33 14 -35 15 -2 1 4 16 13 33 11 22 14 42 9 69 -4 20 -7 46 -6 56 2 29 -25
69 -64 95 -19 13 -34 32 -34 43 0 31 -28 76 -60 94 -18 11 -32 29 -36 48 -9
45 -51 96 -93 113 -90 38 -200 -22 -214 -117 -2 -12 -16 -29 -31 -40 -38 -24
-66 -69 -66 -104 0 -41 -12 -25 -49 64 -71 169 -163 241 -248 193z"/>
</g>
</svg>
